<svg xmlns="http://www.w3.org/2000/svg" viewBox="0 0 628.5713 131.26833">
  <defs>
    <style>
      .cls-1 {
        fill: #4d5858;
      }
    </style>
  </defs>
  <g id="Layer_2" data-name="Layer 2">
    <g id="Layer_1-2" data-name="Layer 1">
      <g>
        <path class="cls-1" d="M37.51389,10.657h-26.715V23.87155H37.15873v8.95307H10.79885V57.97577H0V1.207H37.51389V10.657ZM76.94545,57.97577V1.207H65.93319V57.97577Zm80.9959-56.8406H145.86358l-14.566,39.93008L116.52031,1.13517H104.29889l22.02645,56.8406h10.0882l21.52781-56.8406Zm64.86909,56.8406V48.38453H196.09569V32.75279h26.35974V23.87155H196.09569V10.302h26.71475V1.207H185.29669V57.97577ZM325.19239,20.10625a10.66075,10.66075,0,0,1-.81853,4.157,11.24245,11.24245,0,0,1-2.23684,3.4454,10.90624,10.90624,0,0,1-3.34014,2.38049,9.68391,9.68391,0,0,1-4.12033.88786h-7.31847V9.51943h7.31847a10.05147,10.05147,0,0,1,4.12033.85277,10.97158,10.97158,0,0,1,3.34014,2.27437,10.49321,10.49321,0,0,1,3.05537,7.45968Zm11.012.142a18.51324,18.51324,0,0,0-1.53095-7.53146,18.95866,18.95866,0,0,0-4.16273-6.0389,19.2637,19.2637,0,0,0-6.19314-4.01422,19.73876,19.73876,0,0,0-7.5437-1.45668H296.3461V57.97577h11.012V39.43149H316.76a19.73529,19.73529,0,0,0,7.55028-1.45668,18.97,18.97,0,0,0,6.19635-4.04849,19.32335,19.32335,0,0,0,4.1652-6.11153,18.73247,18.73247,0,0,0,1.53257-7.56657Zm65.86139,37.72755V48.38453H375.351V32.75279h26.35971V23.87155H375.351V10.302h26.71472V1.207H364.552V57.97577Zm65.508-20.53385H448.53254l9.59121-20.46205,9.45006,20.46205Zm21.67062,20.53385-26.8567-56.8406h-8.59728L426.933,57.97577h12.07936L444.34049,46.608h27.56742L477.165,57.97577Zm75.09926,0L537.91211,29.05766,563.56189,1.13517H550.48855L527.25514,26.50011V1.13517h-11.012v56.8406h11.012V32.82462l22.73642,25.15115ZM628.5713,43.05482a18.2797,18.2797,0,0,0-.92375-6.0038,13.92107,13.92107,0,0,0-2.84318-4.79518,20.48571,20.48571,0,0,0-4.9723-3.90815,42.80194,42.80194,0,0,0-7.31849-3.26835q-3.3405-1.20693-5.577-2.23682a19.22592,19.22592,0,0,1-3.58822-2.06139,6.5639,6.5639,0,0,1-1.91858-2.13075,5.25794,5.25794,0,0,1-.56882-2.45228,4.73168,4.73168,0,0,1,.60473-2.30865,6.48913,6.48913,0,0,1,1.59786-1.91777A7.93258,7.93258,0,0,1,605.444,10.657a8.88131,8.88131,0,0,1,3.01945-.497,15.94366,15.94366,0,0,1,6.18082,1.10006,15.36169,15.36169,0,0,1,4.761,3.16226l7.67348-7.74448a24.02318,24.02318,0,0,0-7.95744-4.97393A31.10611,31.10611,0,0,0,608.10765,0a21.49244,21.49244,0,0,0-7.28258,1.207,18.54212,18.54212,0,0,0-5.896,3.37444A15.7183,15.7183,0,0,0,590.9499,9.805a15.31392,15.31392,0,0,0-1.45671,6.67789,15.102,15.102,0,0,0,1.31466,6.53665A16.15158,16.15158,0,0,0,594.29,27.85071a20.95523,20.95523,0,0,0,5.04418,3.51723,54.0216,54.0216,0,0,0,6.00379,2.59264q3.55111,1.28038,5.82672,2.31027a17.96161,17.96161,0,0,1,3.55146,2.023,5.847,5.847,0,0,1,1.77578,2.06138,5.65166,5.65166,0,0,1,.497,2.41634,4.6862,4.6862,0,0,1-.603,2.34459,6.08875,6.08875,0,0,1-1.63378,1.84755,8.32794,8.32794,0,0,1-2.41637,1.24289,9.22854,9.22854,0,0,1-2.94842.46107,20.912,20.912,0,0,1-7.10551-1.17188,22.43144,22.43144,0,0,1-6.67865-4.01423l-7.81548,7.88565a46.91067,46.91067,0,0,0,4.938,3.518,26.49139,26.49139,0,0,0,4.97469,2.37967,28.59816,28.59816,0,0,0,5.541,1.34976,46.64581,46.64581,0,0,0,6.64368.42681,20.79323,20.79323,0,0,0,7.53068-1.31469,19.23192,19.23192,0,0,0,5.89765-3.51643,16.055,16.055,0,0,0,3.87143-5.08,13.83412,13.83412,0,0,0,1.38647-6.07559Z"/>
        <g>
          <path class="cls-1" d="M50.61746,124.16983a16.55356,16.55356,0,0,1-15.61007-10.36469,17.35024,17.35024,0,0,1-1.287-6.67392v-.09509a17.447,17.447,0,0,1,1.2627-6.64959,16.66539,16.66539,0,0,1,8.96047-9.13517,17.26847,17.26847,0,0,1,6.91053-1.34893,20.94279,20.94279,0,0,1,4.13969.37814,16.89825,16.89825,0,0,1,3.432,1.06588,16.1697,16.1697,0,0,1,2.888,1.632,22.94242,22.94242,0,0,1,2.5077,2.08311l-3.73943,4.30775a18.65453,18.65453,0,0,0-4.21266-2.98314,10.99253,10.99253,0,0,0-5.064-1.13443,10.38847,10.38847,0,0,0-4.37851.92214,10.87754,10.87754,0,0,0-3.47849,2.5077,11.2702,11.2702,0,0,0-2.27107,3.71731,12.72536,12.72536,0,0,0-.80494,4.54215v.09509a12.91145,12.91145,0,0,0,.80494,4.56648,11.46065,11.46065,0,0,0,2.27107,3.76376,10.6838,10.6838,0,0,0,3.47849,2.532,10.38847,10.38847,0,0,0,4.37851.92214,10.91945,10.91945,0,0,0,5.20557-1.15876,20.48737,20.48737,0,0,0,4.30775-3.14678l3.73943,3.78586a21.40213,21.40213,0,0,1-2.67355,2.43694,17.74759,17.74759,0,0,1-3.00525,1.84649,15.23959,15.23959,0,0,1-3.52714,1.18308A20.71125,20.71125,0,0,1,50.61746,124.16983Z"/>
          <path class="cls-1" d="M71.34684,89.05106h5.77389v13.48051a13.96009,13.96009,0,0,1,1.34451-1.69391,8.75213,8.75213,0,0,1,3.82346-2.38828,8.83,8.83,0,0,1,2.61827-.35824,8.32064,8.32064,0,0,1,6.56113,2.60278,10.16773,10.16773,0,0,1,2.3131,7.00562v15.902H88.0051v-14.166a6.63082,6.63082,0,0,0-1.38432-4.509,4.92577,4.92577,0,0,0-3.91634-1.58113,5.31461,5.31461,0,0,0-4.03575,1.62756,6.35186,6.35186,0,0,0-1.548,4.55764v14.071H71.34684Z"/>
          <path class="cls-1" d="M117.87187,123.60151v-3.076a10.72282,10.72282,0,0,1-3.2662,2.55635,10.31853,10.31853,0,0,1-4.82742,1.03934,11.46208,11.46208,0,0,1-3.40772-.49535,8.39747,8.39747,0,0,1-2.81729-1.46835,7.1338,7.1338,0,0,1-2.67354-5.74956v-.09509a8.07966,8.07966,0,0,1,.7585-3.62,7.04493,7.04493,0,0,1,2.10522-2.55635,9.21923,9.21923,0,0,1,3.21754-1.51478,15.70388,15.70388,0,0,1,4.04681-.49756,22.2356,22.2356,0,0,1,3.85884.28526,23.31125,23.31125,0,0,1,3.0517.75629v-.47323a4.97633,4.97633,0,0,0-1.58556-3.976,6.7861,6.7861,0,0,0-4.56648-1.371,15.29531,15.29531,0,0,0-3.78586.42458,24.98276,24.98276,0,0,0-3.36129,1.13664l-1.56122-4.5908A26.27051,26.27051,0,0,1,107.317,98.801a21.08,21.08,0,0,1,5.25421-.56832q5.58261,0,8.28158,2.76863,2.69678,2.76975,2.69788,7.78624v14.814Zm.14152-10.45978a14.78794,14.78794,0,0,0-2.58067-.70985,16.72308,16.72308,0,0,0-3.14678-.28306,7.379,7.379,0,0,0-4.21266,1.03935,3.27545,3.27545,0,0,0-1.51478,2.84161v.09287a3.11372,3.11372,0,0,0,1.39758,2.74653,5.98,5.98,0,0,0,3.43205.94646,8.72511,8.72511,0,0,0,2.6249-.37814,6.77423,6.77423,0,0,0,2.10743-1.06588,4.83987,4.83987,0,0,0,1.39538-1.65632,4.646,4.646,0,0,0,.49755-2.15387Z"/>
          <path class="cls-1" d="M132.259,98.61081h5.77389v5.63236A10.98278,10.98278,0,0,1,141.392,99.701a8.04463,8.04463,0,0,1,5.49084-1.56344v6.05915h-.33171a9.36695,9.36695,0,0,0-3.45416.61476,7.23715,7.23715,0,0,0-2.69787,1.8465,8.303,8.303,0,0,0-1.75141,3.10034,13.82515,13.82515,0,0,0-.61476,4.32986v9.51332H132.259Z"/>
          <path class="cls-1" d="M162.1236,124.0283a10.61546,10.61546,0,0,1-2.89911-.38035,5.91686,5.91686,0,0,1-2.31309-1.22952,5.45858,5.45858,0,0,1-1.50373-2.249,9.968,9.968,0,0,1-.5241-3.47848V103.53332h-3.1711V98.61081h3.1711V91.74893h5.77389v6.86188h6.72036v4.92251h-6.72036v12.25984a3.09209,3.09209,0,0,0,.80494,2.38828,3.2403,3.2403,0,0,0,2.27108.73418,7.83256,7.83256,0,0,0,3.54925-.85138v4.68589a10.00426,10.00426,0,0,1-2.31973.94647A11.05047,11.05047,0,0,1,162.1236,124.0283Z"/>
          <path class="cls-1" d="M186.45089,124.16983a13.33887,13.33887,0,0,1-5.03972-.94646,12.10142,12.10142,0,0,1-6.79333-6.74468,13.63739,13.63739,0,0,1-.9929-5.27855v-.09287a14.08277,14.08277,0,0,1,.9-5.064,12.64019,12.64019,0,0,1,2.532-4.1419,11.91965,11.91965,0,0,1,3.85663-2.793,11.68446,11.68446,0,0,1,4.92251-1.01723,11.875,11.875,0,0,1,5.22989,1.088,10.81645,10.81645,0,0,1,3.73943,2.93449,12.77871,12.77871,0,0,1,2.24675,4.28343,17.2338,17.2338,0,0,1,.7585,5.1348c0,.25431-.00885.513-.02433.78061-.01548.26979-.0398.54621-.07076.82927H179.35239a7.29865,7.29865,0,0,0,2.43693,4.71022,7.19767,7.19767,0,0,0,4.75666,1.632,8.38641,8.38641,0,0,0,3.69077-.75629,12.0222,12.0222,0,0,0,3.076-2.22464l3.36128,2.98093a13.82227,13.82227,0,0,1-4.28342,3.40772A12.85237,12.85237,0,0,1,186.45089,124.16983Zm5.6788-14.814a9.70183,9.70183,0,0,0-.61476-2.58067,6.58943,6.58943,0,0,0-1.27818-2.0809,6.04051,6.04051,0,0,0-1.91725-1.39758,5.8947,5.8947,0,0,0-2.532-.51968,5.76964,5.76964,0,0,0-4.37631,1.82217,8.22308,8.22308,0,0,0-2.10743,4.75666Z"/>
          <path class="cls-1" d="M205.47752,98.61081h5.77389v5.63236a10.98278,10.98278,0,0,1,3.35907-4.54215,8.0446,8.0446,0,0,1,5.49083-1.56344v6.05915h-.3317a9.36687,9.36687,0,0,0-3.45416.61476,7.23719,7.23719,0,0,0-2.69788,1.8465,8.30284,8.30284,0,0,0-1.7514,3.10034,13.82486,13.82486,0,0,0-.61476,4.32986v9.51332h-5.77389Z"/>
          <path class="cls-1" d="M238.36944,124.16983a13.33885,13.33885,0,0,1-5.03971-.94646,12.10142,12.10142,0,0,1-6.79333-6.74468,13.63739,13.63739,0,0,1-.9929-5.27855v-.09287a14.083,14.083,0,0,1,.9-5.064,12.64035,12.64035,0,0,1,2.532-4.1419,11.91975,11.91975,0,0,1,3.85663-2.793,11.68453,11.68453,0,0,1,4.92251-1.01723,11.87494,11.87494,0,0,1,5.22989,1.088,10.81635,10.81635,0,0,1,3.73943,2.93449,12.77853,12.77853,0,0,1,2.24675,4.28343,17.23348,17.23348,0,0,1,.7585,5.1348c0,.25431-.00884.513-.02432.78061-.01548.26979-.03981.54621-.07076.82927H231.271a7.2986,7.2986,0,0,0,2.43693,4.71022,7.19766,7.19766,0,0,0,4.75665,1.632,8.38645,8.38645,0,0,0,3.69078-.75629,12.02237,12.02237,0,0,0,3.076-2.22464l3.36128,2.98093a13.82239,13.82239,0,0,1-4.28342,3.40772A12.85238,12.85238,0,0,1,238.36944,124.16983Zm5.6788-14.814a9.70106,9.70106,0,0,0-.61476-2.58067,6.58941,6.58941,0,0,0-1.27817-2.0809,6.04056,6.04056,0,0,0-1.91726-1.39758,5.89467,5.89467,0,0,0-2.532-.51968,5.76962,5.76962,0,0,0-4.3763,1.82217,8.22308,8.22308,0,0,0-2.10743,4.75666Z"/>
          <path class="cls-1" d="M267.71212,124.12118a11.25558,11.25558,0,0,1-4.30554-.85138,10.82277,10.82277,0,0,1-3.693-2.50769,12.70789,12.70789,0,0,1-2.60278-4.07113,14.47246,14.47246,0,0,1-.99291-5.53727v-.09509a14.83356,14.83356,0,0,1,.96637-5.53728,12.41417,12.41417,0,0,1,2.574-4.07113,10.74854,10.74854,0,0,1,3.70626-2.50769,11.3989,11.3989,0,0,1,4.321-.85138,9.15839,9.15839,0,0,1,5.09942,1.32461,14.01,14.01,0,0,1,3.40109,3.076V89.05106H281.96v34.55045h-5.77389l.04644-4.164a12.9643,12.9643,0,0,1-3.43205,3.31263A8.984,8.984,0,0,1,267.71212,124.12118Zm1.34894-4.96895a6.90479,6.90479,0,0,0,5.04855-2.20031,8.11684,8.11684,0,0,0,1.57892-2.532,8.6769,8.6769,0,0,0,.59044-3.26619v-.09509a8.85114,8.85114,0,0,0-.59044-3.28831,7.75172,7.75172,0,0,0-1.57892-2.532,6.99708,6.99708,0,0,0-5.04855-2.1782,7.07792,7.07792,0,0,0-2.75979.544,6.75568,6.75568,0,0,0-2.28656,1.58555,7.4438,7.4438,0,0,0-1.55681,2.532,9.33262,9.33262,0,0,0-.56611,3.337v.09509a9.19449,9.19449,0,0,0,.56611,3.29051,7.4438,7.4438,0,0,0,1.55681,2.532,6.979,6.979,0,0,0,2.28656,1.60767A6.79123,6.79123,0,0,0,269.06106,119.15223Z"/>
          <path class="cls-1" d="M319.49136,90.23414h5.39574l14.57736,33.36737h-6.152l-3.36129-7.99853H314.28579l-3.40772,7.99853H304.914Zm8.33023,20.20972-5.72745-13.25275-5.6788,13.25275Z"/>
          <path class="cls-1" d="M357.96921,124.16983a12.917,12.917,0,0,1-9.27007-3.78586,12.61183,12.61183,0,0,1-2.72-4.11758,13.00619,13.00619,0,0,1-.97743-5.0176v-.09508a13.16543,13.16543,0,0,1,.97743-5.03972,12.80139,12.80139,0,0,1,2.72-4.16622,12.9848,12.9848,0,0,1,4.13305-2.81507,12.84765,12.84765,0,0,1,5.18567-1.04156,13.0024,13.0024,0,0,1,5.89109,1.18308,13.9208,13.9208,0,0,1,4.09546,3.12467l-3.55147,3.8323a13.297,13.297,0,0,0-2.81507-2.24675,7.13493,7.13493,0,0,0-3.66866-.8757,6.53821,6.53821,0,0,0-2.88584.63909,7.15731,7.15731,0,0,0-2.27329,1.70275,7.91931,7.91931,0,0,0-1.49047,2.532,8.78288,8.78288,0,0,0-.544,3.076v.09509a8.90982,8.90982,0,0,0,.544,3.12466,7.71627,7.71627,0,0,0,1.53912,2.55413,7.36088,7.36088,0,0,0,2.36617,1.7293,7.62353,7.62353,0,0,0,6.60315-.23662,13.7708,13.7708,0,0,0,2.91016-2.249l3.45416,3.40772a15.66924,15.66924,0,0,1-4.21266,3.38339A12.35735,12.35735,0,0,1,357.96921,124.16983Z"/>
          <path class="cls-1" d="M386.8873,124.16983a12.917,12.917,0,0,1-9.27007-3.78586,12.61183,12.61183,0,0,1-2.72-4.11758,13.00619,13.00619,0,0,1-.97743-5.0176v-.09508a13.16543,13.16543,0,0,1,.97743-5.03972,12.80139,12.80139,0,0,1,2.72-4.16622,12.98491,12.98491,0,0,1,4.133-2.81507,12.84765,12.84765,0,0,1,5.18567-1.04156,13.0024,13.0024,0,0,1,5.89109,1.18308,13.9208,13.9208,0,0,1,4.09546,3.12467l-3.55146,3.8323a13.29727,13.29727,0,0,0-2.81508-2.24675,7.1349,7.1349,0,0,0-3.66866-.8757,6.53824,6.53824,0,0,0-2.88584.63909,7.15731,7.15731,0,0,0-2.27329,1.70275,7.91911,7.91911,0,0,0-1.49046,2.532,8.78266,8.78266,0,0,0-.544,3.076v.09509a8.90959,8.90959,0,0,0,.544,3.12466,7.71608,7.71608,0,0,0,1.53911,2.55413,7.36088,7.36088,0,0,0,2.36617,1.7293,7.62353,7.62353,0,0,0,6.60315-.23662,13.77055,13.77055,0,0,0,2.91016-2.249l3.45416,3.40772a15.66924,15.66924,0,0,1-4.21266,3.38339A12.35733,12.35733,0,0,1,386.8873,124.16983Z"/>
          <path class="cls-1" d="M416.09066,124.16983a13.59986,13.59986,0,0,1-5.27854-1.01723,13.149,13.149,0,0,1-4.21267-2.76863,12.56625,12.56625,0,0,1-2.76863-4.11758,12.8565,12.8565,0,0,1-.99291-5.0176v-.09508a12.67945,12.67945,0,0,1,1.01723-5.064,13.03446,13.03446,0,0,1,7.00563-6.957,13.40028,13.40028,0,0,1,5.325-1.04156,13.67034,13.67034,0,0,1,5.32276,1.01723,12.8133,12.8133,0,0,1,6.9813,6.91053,12.75388,12.75388,0,0,1,.99512,5.03972v.09509a12.60264,12.60264,0,0,1-1.01723,5.0176,12.97319,12.97319,0,0,1-7.02995,6.957A13.57887,13.57887,0,0,1,416.09066,124.16983Zm.09509-4.969a7.42014,7.42014,0,0,0,3.12687-.63908,7.27894,7.27894,0,0,0,2.375-1.7293,7.413,7.413,0,0,0,1.50373-2.532,8.97273,8.97273,0,0,0,.51967-3.0517v-.09508a8.64727,8.64727,0,0,0-.56611-3.12467,7.83662,7.83662,0,0,0-1.5745-2.55413,7.54115,7.54115,0,0,0-2.39933-1.72708,7.74347,7.74347,0,0,0-6.16088,0,7.42243,7.42243,0,0,0-2.37723,1.70275,7.21642,7.21642,0,0,0-1.50373,2.532,9.18653,9.18653,0,0,0-.51746,3.076v.09509a8.43911,8.43911,0,0,0,.5639,3.10034,8.19189,8.19189,0,0,0,1.57671,2.55634,7.40214,7.40214,0,0,0,2.39712,1.75141A7.19715,7.19715,0,0,0,416.18575,119.20088Z"/>
          <path class="cls-1" d="M445.78936,124.12118a8.31331,8.31331,0,0,1-6.56113-2.60278,10.158,10.158,0,0,1-2.3131-7.00341V98.61081H442.689v14.166a6.6344,6.6344,0,0,0,1.38432,4.509,4.92883,4.92883,0,0,0,3.91855,1.58334,5.31626,5.31626,0,0,0,4.03575-1.62978,6.34621,6.34621,0,0,0,1.548-4.55543V98.61081h5.77389v24.9907H453.5756v-3.92076a12.26663,12.26663,0,0,1-3.06717,3.12909A7.95146,7.95146,0,0,1,445.78936,124.12118Z"/>
          <path class="cls-1" d="M468.43822,98.61081h5.77389v3.92076a13.96009,13.96009,0,0,1,1.34451-1.69391,8.752,8.752,0,0,1,3.82346-2.38828,8.82993,8.82993,0,0,1,2.61826-.35824,8.32067,8.32067,0,0,1,6.56114,2.60278,10.16778,10.16778,0,0,1,2.31309,7.00562v15.902h-5.7761v-14.166a6.63077,6.63077,0,0,0-1.38432-4.509,4.92576,4.92576,0,0,0-3.91633-1.58113,5.31461,5.31461,0,0,0-4.03575,1.62756,6.35186,6.35186,0,0,0-1.548,4.55764v14.071h-5.77389Z"/>
          <path class="cls-1" d="M508.09694,124.0283a10.61536,10.61536,0,0,1-2.89911-.38035,5.91679,5.91679,0,0,1-2.31309-1.22952,5.4585,5.4585,0,0,1-1.50374-2.249,9.9682,9.9682,0,0,1-.52409-3.47848V103.53332H497.6858V98.61081h3.17111V91.74893h5.77389v6.86188h6.72035v4.92251H506.6308v12.25984a3.09205,3.09205,0,0,0,.80494,2.38828,3.24029,3.24029,0,0,0,2.27107.73418,7.83252,7.83252,0,0,0,3.54925-.85138v4.68589a10.00418,10.00418,0,0,1-2.31972.94647A11.05052,11.05052,0,0,1,508.09694,124.0283Z"/>
          <path class="cls-1" d="M521.06441,89.33411h6.20069v5.4444h-6.20069Zm.23662,9.2767h5.7761v24.9907H521.301Z"/>
          <path class="cls-1" d="M536.40027,98.61081h5.77389v3.92076a13.96009,13.96009,0,0,1,1.34451-1.69391,8.752,8.752,0,0,1,3.82346-2.38828,8.82993,8.82993,0,0,1,2.61826-.35824,8.32067,8.32067,0,0,1,6.56114,2.60278,10.16778,10.16778,0,0,1,2.31309,7.00562v15.902h-5.7761v-14.166a6.63077,6.63077,0,0,0-1.38432-4.509,4.92576,4.92576,0,0,0-3.91633-1.58113,5.31461,5.31461,0,0,0-4.03575,1.62756,6.35186,6.35186,0,0,0-1.548,4.55764v14.071h-5.77389Z"/>
          <path class="cls-1" d="M578.75907,131.26833a21.31326,21.31326,0,0,1-11.16963-2.95l2.12955-4.29006a19.30491,19.30491,0,0,0,4.16622,1.93938,15.1861,15.1861,0,0,0,4.73233.70985,8.15491,8.15491,0,0,0,5.869-1.95043,7.61128,7.61128,0,0,0,2.03446-5.754v-1.95043a13.40406,13.40406,0,0,1-3.64434,3.31264,9.70079,9.70079,0,0,1-5.15913,1.27817,11.46047,11.46047,0,0,1-4.2591-.80494,11.24852,11.24852,0,0,1-3.62-2.2954,10.92267,10.92267,0,0,1-2.532-3.66867,12.19742,12.19742,0,0,1-.94646-4.9203v-.09509a12.38065,12.38065,0,0,1,.94646-4.94683,10.88624,10.88624,0,0,1,2.532-3.69078,11.228,11.228,0,0,1,3.64434-2.2954,11.52147,11.52147,0,0,1,4.23477-.80494,9.91123,9.91123,0,0,1,5.2299,1.25385,14.18854,14.18854,0,0,1,3.52713,3.00525V98.61081H592.202v19.878q0,6.24933-3.1711,9.42044a10.49989,10.49989,0,0,1-4.28343,2.532A19.66328,19.66328,0,0,1,578.75907,131.26833Zm.47323-14.48226a8.08528,8.08528,0,0,0,2.81729-.49756,6.92135,6.92135,0,0,0,2.34184-1.4197,7.003,7.003,0,0,0,1.58555-2.176,6.42275,6.42275,0,0,0,.59265-2.76864v-.09509a6.54309,6.54309,0,0,0-.59265-2.81728,7.003,7.003,0,0,0-1.58555-2.176,6.92135,6.92135,0,0,0-2.34184-1.4197,8.08505,8.08505,0,0,0-2.81729-.49756,7.61736,7.61736,0,0,0-2.79075.49756,6.99208,6.99208,0,0,0-2.249,1.39537,6.32485,6.32485,0,0,0-1.51479,2.15388,7.009,7.009,0,0,0-.544,2.81507v.09509a6.72888,6.72888,0,0,0,.56833,2.81729,7.05534,7.05534,0,0,0,1.51478,2.176,6.50613,6.50613,0,0,0,2.24676,1.4197A7.69483,7.69483,0,0,0,579.2323,116.78607Z"/>
        </g>
      </g>
    </g>
  </g>
</svg>
