<svg xmlns="http://www.w3.org/2000/svg" viewBox="0 0 566.7168 22.25166">
  <defs>
    <style>
      .cls-1 {
        fill: #009490;
      }
    </style>
  </defs>
  <g id="Layer_2" data-name="Layer 2">
    <g id="Layer_1-2" data-name="Layer 1">
      <path class="cls-1" d="M7.744,12.07938c3.56523,0,5.90081-1.90553,5.90081-4.73319V7.285c0-3.07332-2.30425-4.67116-5.77693-4.67116H2.42815v9.46552ZM0,.36886H8.05138c4.85617,0,8.05287,2.582,8.05287,6.82309v.06124c0,4.64177-3.8727,7.03857-8.45134,7.03857H2.42815v7.591H0V.36886ZM38.466,14.0151l-4.88606-10.972-4.91734,10.972ZM32.47412.21542H34.747L44.552,21.8828H41.93877l-2.51912-5.68556H27.7105l-2.552,5.68556H22.66926L32.47412.21542ZM63.96186,11.34087c3.22793,0,5.53186-1.65908,5.53186-4.42471V6.85492c0-2.64322-2.02784-4.24106-5.50053-4.24106H57.35506v8.727ZM54.927.36886h9.24975a8.4842,8.4842,0,0,1,6.11758,2.152,5.94317,5.94317,0,0,1,1.659,4.24191v.06036c0,3.56539-2.4596,5.65536-5.8395,6.26987l6.60825,8.78984h-2.9819l-6.23949-8.35817H57.35506V21.8828H54.927V.36886Zm33.82509,2.245H81.52824V.36886H98.433v2.245H91.21V21.8828h-2.458V2.61386Zm20.3633-2.245h2.27437l13.55322,17.24183V.36886h2.36576V21.8828H125.373L111.48194,4.24191V21.8828h-2.36659V.36886Zm30.41312,0H155.0786V2.582H141.95627V9.92742h11.7391V12.1406h-11.7391v7.529h13.27657v2.2132H139.52847V.36886Zm35.76,10.972c3.22835,0,5.53212-1.65908,5.53212-4.42471V6.85492c0-2.64322-2.02793-4.24106-5.50029-4.24106h-6.63869v8.727ZM166.25382.36886h9.25091a8.48325,8.48325,0,0,1,6.11642,2.152,5.94314,5.94314,0,0,1,1.65905,4.24191v.06036c0,3.56539-2.45961,5.65536-5.83977,6.26987l6.60851,8.78984H181.067l-6.23965-8.35817h-6.14578V21.8828h-2.42779V.36886Zm28.56881,0h2.4278V21.8828h-2.4278V.36886Zm14.86872,0h2.27436l13.55322,17.24183V.36886h2.36579V21.8828H225.949L212.05632,4.24191V21.8828h-2.365V.36886Zm29.45754,10.81857v-.06119C239.14889,5.22526,243.483,0,249.93727,0a11.33809,11.33809,0,0,1,8.02192,2.85865L256.39071,4.703a9.14967,9.14967,0,0,0-6.54566-2.458c-4.76417,0-8.17532,4.02482-8.17532,8.82v.06124c0,5.13224,3.28872,8.94325,8.514,8.94325a10.11637,10.11637,0,0,0,6.207-2.152V12.57064h-6.54566V10.38848h8.88206v8.57526a13.03745,13.03745,0,0,1-8.6356,3.28792c-6.76275,0-10.94262-4.91764-10.94262-11.06423ZM285.68991.36886h15.45875v2.245H288.11855V10.2963h11.64769v2.21315H288.11855V21.8828h-2.42864V.36886Zm44.30585,10.81857v-.06119A8.55305,8.55305,0,0,0,321.51357,2.245c-4.91762,0-8.42181,3.93342-8.42181,8.82v.06124a8.55346,8.55346,0,0,0,8.483,8.88206c4.91679,0,8.421-3.93341,8.421-8.82087Zm-19.42482,0v-.06119a10.97273,10.97273,0,1,1,21.944-.06124v.06124a10.97272,10.97272,0,1,1-21.944.06119Zm42.24363.15344c3.22756,0,5.53213-1.65908,5.53213-4.42471V6.85492c0-2.64322-2.02794-4.24106-5.5011-4.24106h-6.63788v8.727ZM343.77992.36886h9.24928a8.48251,8.48251,0,0,1,6.11723,2.152,5.94357,5.94357,0,0,1,1.65987,4.24191v.06036c0,3.56539-2.4596,5.65536-5.83974,6.26987L361.575,21.8828h-2.9819l-6.23963-8.35817h-6.1458V21.8828h-2.4278V.36886Zm42.29832,18.37861,1.50728-1.78148a10.24184,10.24184,0,0,0,7.37476,3.04231c2.8897,0,4.79523-1.53667,4.79523-3.65762v-.06119c0-1.99773-1.0756-3.13536-5.59332-4.08768-4.94862-1.07557-7.223-2.67425-7.223-6.20781V5.93279c0-3.38017,2.98187-5.8716,7.06955-5.8716a11.23246,11.23246,0,0,1,7.56006,2.64322L400.1537,4.58056A9.44017,9.44017,0,0,0,393.9459,2.245c-2.79664,0-4.57894,1.5358-4.57894,3.47234v.06122c0,2.02873,1.1058,3.16551,5.83982,4.18069,4.79354,1.04456,7.00671,2.79666,7.00671,6.08378v.06122c0,3.6894-3.07247,6.0862-7.34541,6.0862a12.58348,12.58348,0,0,1-8.78984-3.443Zm26.88041-5.86913V.36886h2.42777V12.72408c0,4.6418,2.45966,7.25319,6.57749,7.25319,3.96522,0,6.48445-2.39674,6.48445-7.09893V.36886h2.42782V12.69307c0,6.27067-3.59474,9.52836-8.97348,9.52836-5.31748,0-8.94405-3.25769-8.94405-9.34309Zm28.84461-1.69091v-.06119A10.83977,10.83977,0,0,1,452.68472,0a11.20032,11.20032,0,0,1,8.39,3.412l-1.65993,1.78308a9.34913,9.34913,0,0,0-6.76188-2.95c-4.7634,0-8.32876,3.87141-8.32876,8.82v.06124c0,4.978,3.59639,8.88206,8.32876,8.88206,2.95087,0,4.88579-1.13678,6.94553-3.10353l1.59866,1.56686a11.20252,11.20252,0,0,1-8.60535,3.78,10.73115,10.73115,0,0,1-10.78847-11.06423Zm28.2,0v-.06119A10.83973,10.83973,0,0,1,480.88466,0a11.20032,11.20032,0,0,1,8.39,3.412l-1.65993,1.78308a9.349,9.349,0,0,0-6.76188-2.95c-4.76335,0-8.32876,3.87141-8.32876,8.82v.06124c0,4.978,3.59639,8.88206,8.32876,8.88206,2.95092,0,4.88579-1.13678,6.94553-3.10353l1.59871,1.56686a11.20274,11.20274,0,0,1-8.60545,3.78,10.73112,10.73112,0,0,1-10.78837-11.06423ZM499.77167.36886h15.551V2.582H502.19949V9.92742H513.9402V12.1406H502.19949v7.529H515.476v2.2132H499.77167V.36886ZM525.0836,18.74747l1.50811-1.78148a10.24058,10.24058,0,0,0,7.37477,3.04231c2.88971,0,4.79519-1.53667,4.79519-3.65762v-.06119c0-1.99773-1.07637-3.13536-5.59332-4.08768-4.94859-1.07557-7.223-2.67425-7.223-6.20781V5.93279c0-3.38017,2.982-5.8716,7.0688-5.8716a11.2326,11.2326,0,0,1,7.56076,2.64322l-1.415,1.87615A9.44194,9.44194,0,0,0,532.95208,2.245c-2.79661,0-4.57891,1.5358-4.57891,3.47234v.06122c0,2.02873,1.10575,3.16551,5.83977,4.18069,4.79349,1.04456,7.00679,2.79666,7.00679,6.08378v.06122c0,3.6894-3.0725,6.0862-7.34549,6.0862a12.58532,12.58532,0,0,1-8.79064-3.443Zm25.498,0,1.50726-1.78148a10.24061,10.24061,0,0,0,7.37483,3.04231c2.8897,0,4.79518-1.53667,4.79518-3.65762v-.06119c0-1.99773-1.07557-3.13536-5.59332-4.08768-4.94864-1.07557-7.223-2.67425-7.223-6.20781V5.93279c0-3.38017,2.98185-5.8716,7.06955-5.8716a11.23263,11.23263,0,0,1,7.56006,2.64322l-1.41511,1.87615A9.44023,9.44023,0,0,0,558.44925,2.245c-2.79666,0-4.57891,1.5358-4.57891,3.47234v.06122c0,2.02873,1.10575,3.16551,5.83977,4.18069,4.79359,1.04456,7.00669,2.79666,7.00669,6.08378v.06122c0,3.6894-3.0724,6.0862-7.34539,6.0862a12.58221,12.58221,0,0,1-8.78984-3.443Z"/>
    </g>
  </g>
</svg>
