<?xml version="1.0" encoding="UTF-8"?>
<svg id="Layer_2" data-name="Layer 2" xmlns="http://www.w3.org/2000/svg" viewBox="0 0 187.277 33.736">
  <g id="Layer_1-2" data-name="Layer 1">
    <g id="GSecondary">
      <path d="M184.276,3V30.736H3V3H184.276m1.63-3H1.37C.613,0,0,.613,0,1.37v30.997c0,.756,.613,1.37,1.37,1.37H185.907c.756,0,1.37-.613,1.37-1.37V1.37c0-.756-.613-1.37-1.37-1.37h0Z" style="fill: #4e5959;"/>
      <g>
        <path d="M30.823,18.772l.993-1.189c.687,.567,1.407,.928,2.28,.928,.687,0,1.102-.273,1.102-.72v-.022c0-.425-.262-.644-1.538-.971-1.539-.393-2.531-.818-2.531-2.335v-.022c0-1.385,1.113-2.302,2.673-2.302,1.113,0,2.062,.349,2.837,.971l-.873,1.265c-.676-.469-1.342-.752-1.985-.752s-.982,.294-.982,.666v.021c0,.502,.327,.666,1.647,1.004,1.549,.404,2.422,.96,2.422,2.291v.022c0,1.517-1.157,2.367-2.804,2.367-1.156,0-2.324-.403-3.24-1.222Z" style="fill: #4e5959;"/>
        <path d="M38.329,12.247h5.76v1.495h-4.091v1.549h3.601v1.495h-3.601v1.604h4.146v1.495h-5.815v-7.637Z" style="fill: #4e5959;"/>
        <path d="M45.3,16.088v-.021c0-2.171,1.637-3.95,3.982-3.95,1.44,0,2.302,.48,3.011,1.178l-1.069,1.233c-.589-.535-1.189-.862-1.953-.862-1.287,0-2.214,1.069-2.214,2.378v.022c0,1.309,.905,2.4,2.214,2.4,.873,0,1.408-.349,2.008-.895l1.069,1.08c-.785,.84-1.658,1.364-3.131,1.364-2.248,0-3.917-1.735-3.917-3.928Z" style="fill: #4e5959;"/>
        <path d="M53.133,16.088v-.021c0-2.171,1.713-3.95,4.069-3.95s4.048,1.757,4.048,3.928v.022c0,2.171-1.713,3.949-4.069,3.949s-4.048-1.756-4.048-3.928Zm6.361,0v-.021c0-1.31-.96-2.4-2.313-2.4s-2.291,1.069-2.291,2.378v.022c0,1.309,.96,2.4,2.312,2.4s2.292-1.069,2.292-2.378Z" style="fill: #4e5959;"/>
        <path d="M62.744,12.247h1.549l3.578,4.703v-4.703h1.659v7.637h-1.429l-3.699-4.855v4.855h-1.658v-7.637Z" style="fill: #4e5959;"/>
        <path d="M71.362,12.247h2.979c2.4,0,4.059,1.647,4.059,3.797v.022c0,2.149-1.659,3.818-4.059,3.818h-2.979v-7.637Zm2.979,6.121c1.375,0,2.302-.927,2.302-2.28v-.021c0-1.353-.927-2.302-2.302-2.302h-1.298v4.604h1.298Z" style="fill: #4e5959;"/>
        <path d="M81.966,12.193h1.549l3.273,7.691h-1.756l-.698-1.713h-3.229l-.698,1.713h-1.713l3.273-7.691Zm1.768,4.495l-1.015-2.477-1.015,2.477h2.029Z" style="fill: #4e5959;"/>
        <path d="M87.966,12.247h3.491c.971,0,1.724,.273,2.226,.775,.425,.425,.655,1.025,.655,1.746v.021c0,1.233-.666,2.008-1.637,2.368l1.866,2.728h-1.964l-1.637-2.444h-1.32v2.444h-1.68v-7.637Zm3.382,3.709c.818,0,1.288-.437,1.288-1.08v-.021c0-.72-.502-1.091-1.32-1.091h-1.669v2.193h1.702Z" style="fill: #4e5959;"/>
        <path d="M97.73,16.873l-2.935-4.626h1.964l1.822,3.066,1.855-3.066h1.909l-2.935,4.593v3.044h-1.68v-3.011Z" style="fill: #4e5959;"/>
        <path d="M102.454,20.365h6.59v1.266h-6.59v-1.266Z" style="fill: #4e5959;"/>
        <path d="M109.937,12.247h3.546c.873,0,1.56,.24,1.996,.677,.35,.349,.524,.774,.524,1.298v.021c0,.862-.458,1.342-1.004,1.647,.884,.338,1.429,.851,1.429,1.876v.022c0,1.396-1.134,2.095-2.858,2.095h-3.633v-7.637Zm3.186,3.088c.742,0,1.211-.24,1.211-.808v-.021c0-.502-.393-.786-1.102-.786h-1.659v1.615h1.549Zm.447,3.077c.742,0,1.189-.262,1.189-.83v-.021c0-.513-.382-.829-1.244-.829h-1.942v1.68h1.997Z" style="fill: #4e5959;"/>
        <path d="M117.693,16.612v-4.364h1.68v4.321c0,1.244,.622,1.887,1.647,1.887s1.647-.622,1.647-1.833v-4.375h1.68v4.31c0,2.313-1.298,3.448-3.35,3.448s-3.306-1.146-3.306-3.393Z" style="fill: #4e5959;"/>
        <path d="M127.839,13.797h-2.324v-1.549h6.328v1.549h-2.324v6.088h-1.68v-6.088Z" style="fill: #4e5959;"/>
        <path d="M134.909,13.797h-2.324v-1.549h6.328v1.549h-2.324v6.088h-1.68v-6.088Z" style="fill: #4e5959;"/>
        <path d="M139.534,16.088v-.021c0-2.171,1.713-3.95,4.069-3.95s4.048,1.757,4.048,3.928v.022c0,2.171-1.713,3.949-4.069,3.949s-4.048-1.756-4.048-3.928Zm6.361,0v-.021c0-1.31-.96-2.4-2.313-2.4s-2.291,1.069-2.291,2.378v.022c0,1.309,.96,2.4,2.312,2.4s2.292-1.069,2.292-2.378Z" style="fill: #4e5959;"/>
        <path d="M149.145,12.247h1.549l3.578,4.703v-4.703h1.659v7.637h-1.429l-3.699-4.855v4.855h-1.658v-7.637Z" style="fill: #4e5959;"/>
      </g>
    </g>
    <g id="GPrimary">
      <path d="M184.277,3V30.736H3.001V3H184.277m1.63-3H1.37C.614,0,0,.613,0,1.37v30.997c0,.756,.613,1.37,1.37,1.37H185.907c.756,0,1.37-.613,1.37-1.37V1.37c0-.756-.613-1.37-1.37-1.37h0Z" style="fill: #bed330;"/>
      <g>
        <path d="M30.824,18.772l.993-1.189c.687,.567,1.407,.928,2.28,.928,.687,0,1.102-.273,1.102-.72v-.022c0-.425-.262-.644-1.538-.971-1.539-.393-2.531-.818-2.531-2.335v-.022c0-1.385,1.113-2.302,2.673-2.302,1.113,0,2.062,.349,2.837,.971l-.873,1.265c-.676-.469-1.342-.752-1.985-.752s-.982,.294-.982,.666v.021c0,.502,.327,.666,1.647,1.004,1.549,.404,2.422,.96,2.422,2.291v.022c0,1.517-1.157,2.367-2.804,2.367-1.156,0-2.324-.403-3.24-1.222Z" style="fill: #bed330;"/>
        <path d="M38.329,12.247h5.76v1.495h-4.091v1.549h3.601v1.495h-3.601v1.604h4.146v1.495h-5.815v-7.637Z" style="fill: #bed330;"/>
        <path d="M45.3,16.088v-.021c0-2.171,1.637-3.95,3.982-3.95,1.44,0,2.302,.48,3.011,1.178l-1.069,1.233c-.589-.535-1.189-.862-1.953-.862-1.287,0-2.214,1.069-2.214,2.378v.022c0,1.309,.905,2.4,2.214,2.4,.873,0,1.408-.349,2.008-.895l1.069,1.08c-.785,.84-1.658,1.364-3.131,1.364-2.248,0-3.917-1.735-3.917-3.928Z" style="fill: #bed330;"/>
        <path d="M53.133,16.088v-.021c0-2.171,1.713-3.95,4.069-3.95s4.048,1.757,4.048,3.928v.022c0,2.171-1.713,3.949-4.069,3.949s-4.048-1.756-4.048-3.928Zm6.361,0v-.021c0-1.31-.96-2.4-2.313-2.4s-2.291,1.069-2.291,2.378v.022c0,1.309,.96,2.4,2.312,2.4s2.292-1.069,2.292-2.378Z" style="fill: #bed330;"/>
        <path d="M62.745,12.247h1.549l3.578,4.703v-4.703h1.659v7.637h-1.429l-3.699-4.855v4.855h-1.658v-7.637Z" style="fill: #bed330;"/>
        <path d="M71.363,12.247h2.979c2.4,0,4.059,1.647,4.059,3.797v.022c0,2.149-1.659,3.818-4.059,3.818h-2.979v-7.637Zm2.979,6.121c1.375,0,2.302-.927,2.302-2.28v-.021c0-1.353-.927-2.302-2.302-2.302h-1.298v4.604h1.298Z" style="fill: #bed330;"/>
        <path d="M81.967,12.193h1.549l3.273,7.691h-1.756l-.698-1.713h-3.229l-.698,1.713h-1.713l3.273-7.691Zm1.768,4.495l-1.015-2.477-1.015,2.477h2.029Z" style="fill: #bed330;"/>
        <path d="M87.967,12.247h3.491c.971,0,1.724,.273,2.226,.775,.425,.425,.655,1.025,.655,1.746v.021c0,1.233-.666,2.008-1.637,2.368l1.866,2.728h-1.964l-1.637-2.444h-1.32v2.444h-1.68v-7.637Zm3.382,3.709c.818,0,1.288-.437,1.288-1.08v-.021c0-.72-.502-1.091-1.32-1.091h-1.669v2.193h1.702Z" style="fill: #bed330;"/>
        <path d="M97.731,16.873l-2.935-4.626h1.964l1.822,3.066,1.855-3.066h1.909l-2.935,4.593v3.044h-1.68v-3.011Z" style="fill: #bed330;"/>
        <path d="M102.454,20.365h6.59v1.266h-6.59v-1.266Z" style="fill: #bed330;"/>
        <path d="M109.938,12.247h3.546c.873,0,1.56,.24,1.996,.677,.35,.349,.524,.774,.524,1.298v.021c0,.862-.458,1.342-1.004,1.647,.884,.338,1.429,.851,1.429,1.876v.022c0,1.396-1.134,2.095-2.858,2.095h-3.633v-7.637Zm3.186,3.088c.742,0,1.211-.24,1.211-.808v-.021c0-.502-.393-.786-1.102-.786h-1.659v1.615h1.549Zm.447,3.077c.742,0,1.189-.262,1.189-.83v-.021c0-.513-.382-.829-1.244-.829h-1.942v1.68h1.997Z" style="fill: #bed330;"/>
        <path d="M117.694,16.612v-4.364h1.68v4.321c0,1.244,.622,1.887,1.647,1.887s1.647-.622,1.647-1.833v-4.375h1.68v4.31c0,2.313-1.298,3.448-3.35,3.448s-3.306-1.146-3.306-3.393Z" style="fill: #bed330;"/>
        <path d="M127.84,13.797h-2.324v-1.549h6.328v1.549h-2.324v6.088h-1.68v-6.088Z" style="fill: #bed330;"/>
        <path d="M134.909,13.797h-2.324v-1.549h6.328v1.549h-2.324v6.088h-1.68v-6.088Z" style="fill: #bed330;"/>
        <path d="M139.534,16.088v-.021c0-2.171,1.713-3.95,4.069-3.95s4.048,1.757,4.048,3.928v.022c0,2.171-1.713,3.949-4.069,3.949s-4.048-1.756-4.048-3.928Zm6.361,0v-.021c0-1.31-.96-2.4-2.313-2.4s-2.291,1.069-2.291,2.378v.022c0,1.309,.96,2.4,2.312,2.4s2.292-1.069,2.292-2.378Z" style="fill: #bed330;"/>
        <path d="M149.145,12.247h1.549l3.578,4.703v-4.703h1.659v7.637h-1.429l-3.699-4.855v4.855h-1.658v-7.637Z" style="fill: #bed330;"/>
      </g>
    </g>
  </g>
</svg>